<?xml version="1.0" standalone="no"?>
				<svg width="204" height="104" version="1.1"
				xmlns="http://www.w3.org/2000/svg">

<rect x="59" y="9" width="2" height="2" stroke="green"
				fill="green" stroke-width="1"/>
<rect x="60" y="9" width="2" height="2" stroke="green"
				fill="green" stroke-width="1"/>
<rect x="61" y="9" width="2" height="2" stroke="green"
				fill="green" stroke-width="1"/>
<rect x="57" y="10" width="2" height="2" stroke="green"
				fill="green" stroke-width="1"/>
<rect x="58" y="10" width="2" height="2" stroke="green"
				fill="green" stroke-width="1"/>
<rect x="59" y="10" width="2" height="2" stroke="green"
				fill="green" stroke-width="1"/>
<rect x="61" y="10" width="2" height="2" stroke="green"
				fill="green" stroke-width="1"/>
<rect x="27" y="12" width="2" height="2" stroke="green"
				fill="green" stroke-width="1"/>
<rect x="28" y="12" width="2" height="2" stroke="green"
				fill="green" stroke-width="1"/>
<rect x="29" y="12" width="2" height="2" stroke="green"
				fill="green" stroke-width="1"/>
<rect x="30" y="12" width="2" height="2" stroke="green"
				fill="green" stroke-width="1"/>
<rect x="31" y="12" width="2" height="2" stroke="green"
				fill="green" stroke-width="1"/>
<rect x="32" y="12" width="2" height="2" stroke="green"
				fill="green" stroke-width="1"/>
<rect x="33" y="12" width="2" height="2" stroke="green"
				fill="green" stroke-width="1"/>
<rect x="34" y="12" width="2" height="2" stroke="green"
				fill="green" stroke-width="1"/>
<rect x="35" y="12" width="2" height="2" stroke="green"
				fill="green" stroke-width="1"/>
<rect x="36" y="12" width="2" height="2" stroke="green"
				fill="green" stroke-width="1"/>
<rect x="55" y="12" width="2" height="2" stroke="green"
				fill="green" stroke-width="1"/>
<rect x="56" y="12" width="2" height="2" stroke="green"
				fill="green" stroke-width="1"/>
<rect x="57" y="12" width="2" height="2" stroke="green"
				fill="green" stroke-width="1"/>
<rect x="61" y="12" width="2" height="2" stroke="green"
				fill="green" stroke-width="1"/>
<rect x="25" y="13" width="2" height="2" stroke="gray"
				fill="gray" stroke-width="1"/>
<rect x="26" y="13" width="2" height="2" stroke="gray"
				fill="gray" stroke-width="1"/>
<rect x="27" y="13" width="2" height="2" stroke="green"
				fill="green" stroke-width="1"/>
<rect x="36" y="13" width="2" height="2" stroke="green"
				fill="green" stroke-width="1"/>
<rect x="53" y="13" width="2" height="2" stroke="green"
				fill="green" stroke-width="1"/>
<rect x="54" y="13" width="2" height="2" stroke="green"
				fill="green" stroke-width="1"/>
<rect x="55" y="13" width="2" height="2" stroke="green"
				fill="green" stroke-width="1"/>
<rect x="61" y="13" width="2" height="2" stroke="green"
				fill="green" stroke-width="1"/>
<rect x="24" y="15" width="2" height="2" stroke="gray"
				fill="gray" stroke-width="1"/>
<rect x="25" y="15" width="2" height="2" stroke="gray"
				fill="gray" stroke-width="1"/>
<rect x="26" y="15" width="2" height="2" stroke="gray"
				fill="gray" stroke-width="1"/>
<rect x="27" y="15" width="2" height="2" stroke="gray"
				fill="gray" stroke-width="1"/>
<rect x="36" y="15" width="2" height="2" stroke="green"
				fill="green" stroke-width="1"/>
<rect x="37" y="15" width="2" height="2" stroke="green"
				fill="green" stroke-width="1"/>
<rect x="38" y="15" width="2" height="2" stroke="green"
				fill="green" stroke-width="1"/>
<rect x="39" y="15" width="2" height="2" stroke="green"
				fill="green" stroke-width="1"/>
<rect x="40" y="15" width="2" height="2" stroke="green"
				fill="green" stroke-width="1"/>
<rect x="41" y="15" width="2" height="2" stroke="green"
				fill="green" stroke-width="1"/>
<rect x="42" y="15" width="2" height="2" stroke="green"
				fill="green" stroke-width="1"/>
<rect x="43" y="15" width="2" height="2" stroke="green"
				fill="green" stroke-width="1"/>
<rect x="44" y="15" width="2" height="2" stroke="green"
				fill="green" stroke-width="1"/>
<rect x="45" y="15" width="2" height="2" stroke="green"
				fill="green" stroke-width="1"/>
<rect x="46" y="15" width="2" height="2" stroke="green"
				fill="green" stroke-width="1"/>
<rect x="47" y="15" width="2" height="2" stroke="green"
				fill="green" stroke-width="1"/>
<rect x="48" y="15" width="2" height="2" stroke="green"
				fill="green" stroke-width="1"/>
<rect x="49" y="15" width="2" height="2" stroke="green"
				fill="green" stroke-width="1"/>
<rect x="50" y="15" width="2" height="2" stroke="green"
				fill="green" stroke-width="1"/>
<rect x="51" y="15" width="2" height="2" stroke="green"
				fill="green" stroke-width="1"/>
<rect x="52" y="15" width="2" height="2" stroke="green"
				fill="green" stroke-width="1"/>
<rect x="53" y="15" width="2" height="2" stroke="green"
				fill="green" stroke-width="1"/>
<rect x="61" y="15" width="2" height="2" stroke="green"
				fill="green" stroke-width="1"/>
<rect x="23" y="16" width="2" height="2" stroke="gray"
				fill="gray" stroke-width="1"/>
<rect x="24" y="16" width="2" height="2" stroke="gray"
				fill="gray" stroke-width="1"/>
<rect x="27" y="16" width="2" height="2" stroke="gray"
				fill="gray" stroke-width="1"/>
<rect x="28" y="16" width="2" height="2" stroke="gray"
				fill="gray" stroke-width="1"/>
<rect x="29" y="16" width="2" height="2" stroke="gray"
				fill="gray" stroke-width="1"/>
<rect x="61" y="16" width="2" height="2" stroke="green"
				fill="green" stroke-width="1"/>
<rect x="23" y="18" width="2" height="2" stroke="gray"
				fill="gray" stroke-width="1"/>
<rect x="24" y="18" width="2" height="2" stroke="gray"
				fill="gray" stroke-width="1"/>
<rect x="29" y="18" width="2" height="2" stroke="gray"
				fill="gray" stroke-width="1"/>
<rect x="30" y="18" width="2" height="2" stroke="gray"
				fill="gray" stroke-width="1"/>
<rect x="61" y="18" width="2" height="2" stroke="green"
				fill="green" stroke-width="1"/>
<rect x="24" y="19" width="2" height="2" stroke="gray"
				fill="gray" stroke-width="1"/>
<rect x="25" y="19" width="2" height="2" stroke="gray"
				fill="gray" stroke-width="1"/>
<rect x="30" y="19" width="2" height="2" stroke="gray"
				fill="gray" stroke-width="1"/>
<rect x="31" y="19" width="2" height="2" stroke="gray"
				fill="gray" stroke-width="1"/>
<rect x="32" y="19" width="2" height="2" stroke="gray"
				fill="gray" stroke-width="1"/>
<rect x="33" y="19" width="2" height="2" stroke="gray"
				fill="gray" stroke-width="1"/>
<rect x="34" y="19" width="2" height="2" stroke="gray"
				fill="gray" stroke-width="1"/>
<rect x="35" y="19" width="2" height="2" stroke="gray"
				fill="gray" stroke-width="1"/>
<rect x="36" y="19" width="2" height="2" stroke="gray"
				fill="gray" stroke-width="1"/>
<rect x="37" y="19" width="2" height="2" stroke="gray"
				fill="gray" stroke-width="1"/>
<rect x="38" y="19" width="2" height="2" stroke="gray"
				fill="gray" stroke-width="1"/>
<rect x="39" y="19" width="2" height="2" stroke="gray"
				fill="gray" stroke-width="1"/>
<rect x="40" y="19" width="2" height="2" stroke="gray"
				fill="gray" stroke-width="1"/>
<rect x="41" y="19" width="2" height="2" stroke="gray"
				fill="gray" stroke-width="1"/>
<rect x="42" y="19" width="2" height="2" stroke="gray"
				fill="gray" stroke-width="1"/>
<rect x="43" y="19" width="2" height="2" stroke="gray"
				fill="gray" stroke-width="1"/>
<rect x="44" y="19" width="2" height="2" stroke="gray"
				fill="gray" stroke-width="1"/>
<rect x="45" y="19" width="2" height="2" stroke="gray"
				fill="gray" stroke-width="1"/>
<rect x="46" y="19" width="2" height="2" stroke="gray"
				fill="gray" stroke-width="1"/>
<rect x="47" y="19" width="2" height="2" stroke="gray"
				fill="gray" stroke-width="1"/>
<rect x="48" y="19" width="2" height="2" stroke="gray"
				fill="gray" stroke-width="1"/>
<rect x="49" y="19" width="2" height="2" stroke="gray"
				fill="gray" stroke-width="1"/>
<rect x="50" y="19" width="2" height="2" stroke="gray"
				fill="gray" stroke-width="1"/>
<rect x="51" y="19" width="2" height="2" stroke="gray"
				fill="gray" stroke-width="1"/>
<rect x="61" y="19" width="2" height="2" stroke="green"
				fill="green" stroke-width="1"/>
<rect x="25" y="21" width="2" height="2" stroke="gray"
				fill="gray" stroke-width="1"/>
<rect x="26" y="21" width="2" height="2" stroke="gray"
				fill="gray" stroke-width="1"/>
<rect x="32" y="21" width="2" height="2" stroke="gray"
				fill="gray" stroke-width="1"/>
<rect x="33" y="21" width="2" height="2" stroke="gray"
				fill="gray" stroke-width="1"/>
<rect x="50" y="21" width="2" height="2" stroke="gray"
				fill="gray" stroke-width="1"/>
<rect x="51" y="21" width="2" height="2" stroke="gray"
				fill="gray" stroke-width="1"/>
<rect x="52" y="21" width="2" height="2" stroke="gray"
				fill="gray" stroke-width="1"/>
<rect x="61" y="21" width="2" height="2" stroke="green"
				fill="green" stroke-width="1"/>
<rect x="26" y="22" width="2" height="2" stroke="gray"
				fill="gray" stroke-width="1"/>
<rect x="33" y="22" width="2" height="2" stroke="gray"
				fill="gray" stroke-width="1"/>
<rect x="34" y="22" width="2" height="2" stroke="gray"
				fill="gray" stroke-width="1"/>
<rect x="40" y="22" width="2" height="2" stroke="gray"
				fill="gray" stroke-width="1"/>
<rect x="41" y="22" width="2" height="2" stroke="gray"
				fill="gray" stroke-width="1"/>
<rect x="42" y="22" width="2" height="2" stroke="gray"
				fill="gray" stroke-width="1"/>
<rect x="43" y="22" width="2" height="2" stroke="gray"
				fill="gray" stroke-width="1"/>
<rect x="44" y="22" width="2" height="2" stroke="gray"
				fill="gray" stroke-width="1"/>
<rect x="45" y="22" width="2" height="2" stroke="gray"
				fill="gray" stroke-width="1"/>
<rect x="46" y="22" width="2" height="2" stroke="gray"
				fill="gray" stroke-width="1"/>
<rect x="47" y="22" width="2" height="2" stroke="gray"
				fill="gray" stroke-width="1"/>
<rect x="48" y="22" width="2" height="2" stroke="gray"
				fill="gray" stroke-width="1"/>
<rect x="49" y="22" width="2" height="2" stroke="gray"
				fill="gray" stroke-width="1"/>
<rect x="50" y="22" width="2" height="2" stroke="gray"
				fill="gray" stroke-width="1"/>
<rect x="52" y="22" width="2" height="2" stroke="gray"
				fill="gray" stroke-width="1"/>
<rect x="53" y="22" width="2" height="2" stroke="gray"
				fill="gray" stroke-width="1"/>
<rect x="61" y="22" width="2" height="2" stroke="green"
				fill="green" stroke-width="1"/>
<rect x="26" y="24" width="2" height="2" stroke="gray"
				fill="gray" stroke-width="1"/>
<rect x="34" y="24" width="2" height="2" stroke="gray"
				fill="gray" stroke-width="1"/>
<rect x="35" y="24" width="2" height="2" stroke="gray"
				fill="gray" stroke-width="1"/>
<rect x="39" y="24" width="2" height="2" stroke="gray"
				fill="gray" stroke-width="1"/>
<rect x="40" y="24" width="2" height="2" stroke="gray"
				fill="gray" stroke-width="1"/>
<rect x="53" y="24" width="2" height="2" stroke="gray"
				fill="gray" stroke-width="1"/>
<rect x="54" y="24" width="2" height="2" stroke="gray"
				fill="gray" stroke-width="1"/>
<rect x="61" y="24" width="2" height="2" stroke="green"
				fill="green" stroke-width="1"/>
<rect x="26" y="25" width="2" height="2" stroke="gray"
				fill="gray" stroke-width="1"/>
<rect x="35" y="25" width="2" height="2" stroke="gray"
				fill="gray" stroke-width="1"/>
<rect x="36" y="25" width="2" height="2" stroke="gray"
				fill="gray" stroke-width="1"/>
<rect x="38" y="25" width="2" height="2" stroke="gray"
				fill="gray" stroke-width="1"/>
<rect x="39" y="25" width="2" height="2" stroke="gray"
				fill="gray" stroke-width="1"/>
<rect x="54" y="25" width="2" height="2" stroke="gray"
				fill="gray" stroke-width="1"/>
<rect x="55" y="25" width="2" height="2" stroke="gray"
				fill="gray" stroke-width="1"/>
<rect x="61" y="25" width="2" height="2" stroke="green"
				fill="green" stroke-width="1"/>
<rect x="26" y="27" width="2" height="2" stroke="gray"
				fill="gray" stroke-width="1"/>
<rect x="36" y="27" width="2" height="2" stroke="gray"
				fill="gray" stroke-width="1"/>
<rect x="37" y="27" width="2" height="2" stroke="black"
				fill="black" stroke-width="1"/>
<rect x="38" y="27" width="2" height="2" stroke="black"
				fill="black" stroke-width="1"/>
<rect x="39" y="27" width="2" height="2" stroke="black"
				fill="black" stroke-width="1"/>
<rect x="40" y="27" width="2" height="2" stroke="black"
				fill="black" stroke-width="1"/>
<rect x="41" y="27" width="2" height="2" stroke="black"
				fill="black" stroke-width="1"/>
<rect x="42" y="27" width="2" height="2" stroke="black"
				fill="black" stroke-width="1"/>
<rect x="43" y="27" width="2" height="2" stroke="black"
				fill="black" stroke-width="1"/>
<rect x="44" y="27" width="2" height="2" stroke="black"
				fill="black" stroke-width="1"/>
<rect x="45" y="27" width="2" height="2" stroke="black"
				fill="black" stroke-width="1"/>
<rect x="46" y="27" width="2" height="2" stroke="black"
				fill="black" stroke-width="1"/>
<rect x="47" y="27" width="2" height="2" stroke="black"
				fill="black" stroke-width="1"/>
<rect x="48" y="27" width="2" height="2" stroke="black"
				fill="black" stroke-width="1"/>
<rect x="49" y="27" width="2" height="2" stroke="black"
				fill="black" stroke-width="1"/>
<rect x="50" y="27" width="2" height="2" stroke="black"
				fill="black" stroke-width="1"/>
<rect x="51" y="27" width="2" height="2" stroke="black"
				fill="black" stroke-width="1"/>
<rect x="52" y="27" width="2" height="2" stroke="black"
				fill="black" stroke-width="1"/>
<rect x="53" y="27" width="2" height="2" stroke="black"
				fill="black" stroke-width="1"/>
<rect x="54" y="27" width="2" height="2" stroke="black"
				fill="black" stroke-width="1"/>
<rect x="55" y="27" width="2" height="2" stroke="gray"
				fill="gray" stroke-width="1"/>
<rect x="61" y="27" width="2" height="2" stroke="green"
				fill="green" stroke-width="1"/>
<rect x="26" y="28" width="2" height="2" stroke="gray"
				fill="gray" stroke-width="1"/>
<rect x="36" y="28" width="2" height="2" stroke="black"
				fill="black" stroke-width="1"/>
<rect x="37" y="28" width="2" height="2" stroke="gray"
				fill="gray" stroke-width="1"/>
<rect x="38" y="28" width="2" height="2" stroke="gray"
				fill="gray" stroke-width="1"/>
<rect x="55" y="28" width="2" height="2" stroke="black"
				fill="black" stroke-width="1"/>
<rect x="61" y="28" width="2" height="2" stroke="green"
				fill="green" stroke-width="1"/>
<rect x="26" y="30" width="2" height="2" stroke="gray"
				fill="gray" stroke-width="1"/>
<rect x="34" y="30" width="2" height="2" stroke="gray"
				fill="gray" stroke-width="1"/>
<rect x="35" y="30" width="2" height="2" stroke="gray"
				fill="gray" stroke-width="1"/>
<rect x="36" y="30" width="2" height="2" stroke="black"
				fill="black" stroke-width="1"/>
<rect x="55" y="30" width="2" height="2" stroke="black"
				fill="black" stroke-width="1"/>
<rect x="61" y="30" width="2" height="2" stroke="green"
				fill="green" stroke-width="1"/>
<rect x="26" y="31" width="2" height="2" stroke="gray"
				fill="gray" stroke-width="1"/>
<rect x="33" y="31" width="2" height="2" stroke="gray"
				fill="gray" stroke-width="1"/>
<rect x="34" y="31" width="2" height="2" stroke="gray"
				fill="gray" stroke-width="1"/>
<rect x="36" y="31" width="2" height="2" stroke="black"
				fill="black" stroke-width="1"/>
<rect x="55" y="31" width="2" height="2" stroke="black"
				fill="black" stroke-width="1"/>
<rect x="61" y="31" width="2" height="2" stroke="green"
				fill="green" stroke-width="1"/>
<rect x="26" y="33" width="2" height="2" stroke="gray"
				fill="gray" stroke-width="1"/>
<rect x="32" y="33" width="2" height="2" stroke="gray"
				fill="gray" stroke-width="1"/>
<rect x="33" y="33" width="2" height="2" stroke="gray"
				fill="gray" stroke-width="1"/>
<rect x="36" y="33" width="2" height="2" stroke="black"
				fill="black" stroke-width="1"/>
<rect x="55" y="33" width="2" height="2" stroke="black"
				fill="black" stroke-width="1"/>
<rect x="61" y="33" width="2" height="2" stroke="green"
				fill="green" stroke-width="1"/>
<rect x="26" y="34" width="2" height="2" stroke="gray"
				fill="gray" stroke-width="1"/>
<rect x="31" y="34" width="2" height="2" stroke="gray"
				fill="gray" stroke-width="1"/>
<rect x="32" y="34" width="2" height="2" stroke="gray"
				fill="gray" stroke-width="1"/>
<rect x="36" y="34" width="2" height="2" stroke="black"
				fill="black" stroke-width="1"/>
<rect x="55" y="34" width="2" height="2" stroke="black"
				fill="black" stroke-width="1"/>
<rect x="61" y="34" width="2" height="2" stroke="green"
				fill="green" stroke-width="1"/>
<rect x="26" y="36" width="2" height="2" stroke="gray"
				fill="gray" stroke-width="1"/>
<rect x="30" y="36" width="2" height="2" stroke="gray"
				fill="gray" stroke-width="1"/>
<rect x="31" y="36" width="2" height="2" stroke="gray"
				fill="gray" stroke-width="1"/>
<rect x="36" y="36" width="2" height="2" stroke="black"
				fill="black" stroke-width="1"/>
<rect x="55" y="36" width="2" height="2" stroke="black"
				fill="black" stroke-width="1"/>
<rect x="61" y="36" width="2" height="2" stroke="green"
				fill="green" stroke-width="1"/>
<rect x="26" y="37" width="2" height="2" stroke="gray"
				fill="gray" stroke-width="1"/>
<rect x="29" y="37" width="2" height="2" stroke="gray"
				fill="gray" stroke-width="1"/>
<rect x="30" y="37" width="2" height="2" stroke="gray"
				fill="gray" stroke-width="1"/>
<rect x="36" y="37" width="2" height="2" stroke="black"
				fill="black" stroke-width="1"/>
<rect x="55" y="37" width="2" height="2" stroke="black"
				fill="black" stroke-width="1"/>
<rect x="61" y="37" width="2" height="2" stroke="green"
				fill="green" stroke-width="1"/>
<rect x="26" y="39" width="2" height="2" stroke="gray"
				fill="gray" stroke-width="1"/>
<rect x="28" y="39" width="2" height="2" stroke="gray"
				fill="gray" stroke-width="1"/>
<rect x="29" y="39" width="2" height="2" stroke="gray"
				fill="gray" stroke-width="1"/>
<rect x="36" y="39" width="2" height="2" stroke="black"
				fill="black" stroke-width="1"/>
<rect x="55" y="39" width="2" height="2" stroke="black"
				fill="black" stroke-width="1"/>
<rect x="61" y="39" width="2" height="2" stroke="green"
				fill="green" stroke-width="1"/>
<rect x="26" y="40" width="2" height="2" stroke="gray"
				fill="gray" stroke-width="1"/>
<rect x="27" y="40" width="2" height="2" stroke="gray"
				fill="gray" stroke-width="1"/>
<rect x="28" y="40" width="2" height="2" stroke="gray"
				fill="gray" stroke-width="1"/>
<rect x="36" y="40" width="2" height="2" stroke="black"
				fill="black" stroke-width="1"/>
<rect x="55" y="40" width="2" height="2" stroke="black"
				fill="black" stroke-width="1"/>
<rect x="61" y="40" width="2" height="2" stroke="green"
				fill="green" stroke-width="1"/>
<rect x="26" y="42" width="2" height="2" stroke="gray"
				fill="gray" stroke-width="1"/>
<rect x="27" y="42" width="2" height="2" stroke="gray"
				fill="gray" stroke-width="1"/>
<rect x="36" y="42" width="2" height="2" stroke="black"
				fill="black" stroke-width="1"/>
<rect x="55" y="42" width="2" height="2" stroke="black"
				fill="black" stroke-width="1"/>
<rect x="61" y="42" width="2" height="2" stroke="green"
				fill="green" stroke-width="1"/>
<rect x="26" y="43" width="2" height="2" stroke="gray"
				fill="gray" stroke-width="1"/>
<rect x="27" y="43" width="2" height="2" stroke="gray"
				fill="gray" stroke-width="1"/>
<rect x="28" y="43" width="2" height="2" stroke="gray"
				fill="gray" stroke-width="1"/>
<rect x="29" y="43" width="2" height="2" stroke="gray"
				fill="gray" stroke-width="1"/>
<rect x="30" y="43" width="2" height="2" stroke="gray"
				fill="gray" stroke-width="1"/>
<rect x="31" y="43" width="2" height="2" stroke="gray"
				fill="gray" stroke-width="1"/>
<rect x="32" y="43" width="2" height="2" stroke="gray"
				fill="gray" stroke-width="1"/>
<rect x="33" y="43" width="2" height="2" stroke="gray"
				fill="gray" stroke-width="1"/>
<rect x="34" y="43" width="2" height="2" stroke="gray"
				fill="gray" stroke-width="1"/>
<rect x="35" y="43" width="2" height="2" stroke="gray"
				fill="gray" stroke-width="1"/>
<rect x="36" y="43" width="2" height="2" stroke="gray"
				fill="gray" stroke-width="1"/>
<rect x="37" y="43" width="2" height="2" stroke="black"
				fill="black" stroke-width="1"/>
<rect x="38" y="43" width="2" height="2" stroke="black"
				fill="black" stroke-width="1"/>
<rect x="39" y="43" width="2" height="2" stroke="black"
				fill="black" stroke-width="1"/>
<rect x="40" y="43" width="2" height="2" stroke="black"
				fill="black" stroke-width="1"/>
<rect x="41" y="43" width="2" height="2" stroke="black"
				fill="black" stroke-width="1"/>
<rect x="42" y="43" width="2" height="2" stroke="black"
				fill="black" stroke-width="1"/>
<rect x="43" y="43" width="2" height="2" stroke="black"
				fill="black" stroke-width="1"/>
<rect x="44" y="43" width="2" height="2" stroke="black"
				fill="black" stroke-width="1"/>
<rect x="45" y="43" width="2" height="2" stroke="black"
				fill="black" stroke-width="1"/>
<rect x="46" y="43" width="2" height="2" stroke="black"
				fill="black" stroke-width="1"/>
<rect x="47" y="43" width="2" height="2" stroke="black"
				fill="black" stroke-width="1"/>
<rect x="48" y="43" width="2" height="2" stroke="black"
				fill="black" stroke-width="1"/>
<rect x="49" y="43" width="2" height="2" stroke="black"
				fill="black" stroke-width="1"/>
<rect x="50" y="43" width="2" height="2" stroke="black"
				fill="black" stroke-width="1"/>
<rect x="51" y="43" width="2" height="2" stroke="black"
				fill="black" stroke-width="1"/>
<rect x="52" y="43" width="2" height="2" stroke="black"
				fill="black" stroke-width="1"/>
<rect x="53" y="43" width="2" height="2" stroke="black"
				fill="black" stroke-width="1"/>
<rect x="54" y="43" width="2" height="2" stroke="black"
				fill="black" stroke-width="1"/>
<rect x="55" y="43" width="2" height="2" stroke="black"
				fill="black" stroke-width="1"/>
<rect x="61" y="43" width="2" height="2" stroke="green"
				fill="green" stroke-width="1"/>
<rect x="37" y="45" width="2" height="2" stroke="green"
				fill="green" stroke-width="1"/>
<rect x="61" y="45" width="2" height="2" stroke="green"
				fill="green" stroke-width="1"/>
<rect x="37" y="46" width="2" height="2" stroke="green"
				fill="green" stroke-width="1"/>
<rect x="61" y="46" width="2" height="2" stroke="green"
				fill="green" stroke-width="1"/>
<rect x="37" y="48" width="2" height="2" stroke="green"
				fill="green" stroke-width="1"/>
<rect x="38" y="48" width="2" height="2" stroke="green"
				fill="green" stroke-width="1"/>
<rect x="39" y="48" width="2" height="2" stroke="green"
				fill="green" stroke-width="1"/>
<rect x="40" y="48" width="2" height="2" stroke="green"
				fill="green" stroke-width="1"/>
<rect x="41" y="48" width="2" height="2" stroke="green"
				fill="green" stroke-width="1"/>
<rect x="42" y="48" width="2" height="2" stroke="green"
				fill="green" stroke-width="1"/>
<rect x="43" y="48" width="2" height="2" stroke="green"
				fill="green" stroke-width="1"/>
<rect x="44" y="48" width="2" height="2" stroke="green"
				fill="green" stroke-width="1"/>
<rect x="45" y="48" width="2" height="2" stroke="green"
				fill="green" stroke-width="1"/>
<rect x="46" y="48" width="2" height="2" stroke="green"
				fill="green" stroke-width="1"/>
<rect x="47" y="48" width="2" height="2" stroke="green"
				fill="green" stroke-width="1"/>
<rect x="48" y="48" width="2" height="2" stroke="green"
				fill="green" stroke-width="1"/>
<rect x="49" y="48" width="2" height="2" stroke="green"
				fill="green" stroke-width="1"/>
<rect x="50" y="48" width="2" height="2" stroke="green"
				fill="green" stroke-width="1"/>
<rect x="51" y="48" width="2" height="2" stroke="green"
				fill="green" stroke-width="1"/>
<rect x="52" y="48" width="2" height="2" stroke="green"
				fill="green" stroke-width="1"/>
<rect x="53" y="48" width="2" height="2" stroke="green"
				fill="green" stroke-width="1"/>
<rect x="54" y="48" width="2" height="2" stroke="green"
				fill="green" stroke-width="1"/>
<rect x="55" y="48" width="2" height="2" stroke="green"
				fill="green" stroke-width="1"/>
<rect x="56" y="48" width="2" height="2" stroke="green"
				fill="green" stroke-width="1"/>
<rect x="57" y="48" width="2" height="2" stroke="green"
				fill="green" stroke-width="1"/>
<rect x="58" y="48" width="2" height="2" stroke="green"
				fill="green" stroke-width="1"/>
<rect x="59" y="48" width="2" height="2" stroke="green"
				fill="green" stroke-width="1"/>
<rect x="60" y="48" width="2" height="2" stroke="green"
				fill="green" stroke-width="1"/>
<rect x="61" y="48" width="2" height="2" stroke="green"
				fill="green" stroke-width="1"/>

</svg>
