<?xml version="1.0" standalone="no"?>
				<svg width="178" height="100" version="1.1"
				xmlns="http://www.w3.org/2000/svg">

<rect x="44" y="25" width="2" height="2" stroke="blue"
				fill="blue" stroke-width="1"/>
<rect x="45" y="25" width="2" height="2" stroke="blue"
				fill="blue" stroke-width="1"/>
<rect x="46" y="25" width="2" height="2" stroke="blue"
				fill="blue" stroke-width="1"/>
<rect x="47" y="25" width="2" height="2" stroke="blue"
				fill="blue" stroke-width="1"/>
<rect x="48" y="25" width="2" height="2" stroke="blue"
				fill="blue" stroke-width="1"/>
<rect x="44" y="27" width="2" height="2" stroke="blue"
				fill="blue" stroke-width="1"/>
<rect x="48" y="27" width="2" height="2" stroke="blue"
				fill="blue" stroke-width="1"/>
<rect x="51" y="27" width="2" height="2" stroke="blue"
				fill="blue" stroke-width="1"/>
<rect x="52" y="27" width="2" height="2" stroke="blue"
				fill="blue" stroke-width="1"/>
<rect x="53" y="27" width="2" height="2" stroke="blue"
				fill="blue" stroke-width="1"/>
<rect x="54" y="27" width="2" height="2" stroke="blue"
				fill="blue" stroke-width="1"/>
<rect x="55" y="27" width="2" height="2" stroke="blue"
				fill="blue" stroke-width="1"/>
<rect x="56" y="27" width="2" height="2" stroke="blue"
				fill="blue" stroke-width="1"/>
<rect x="57" y="27" width="2" height="2" stroke="blue"
				fill="blue" stroke-width="1"/>
<rect x="58" y="27" width="2" height="2" stroke="blue"
				fill="blue" stroke-width="1"/>
<rect x="44" y="28" width="2" height="2" stroke="blue"
				fill="blue" stroke-width="1"/>
<rect x="48" y="28" width="2" height="2" stroke="blue"
				fill="blue" stroke-width="1"/>
<rect x="51" y="28" width="2" height="2" stroke="blue"
				fill="blue" stroke-width="1"/>
<rect x="58" y="28" width="2" height="2" stroke="blue"
				fill="blue" stroke-width="1"/>
<rect x="44" y="30" width="2" height="2" stroke="blue"
				fill="blue" stroke-width="1"/>
<rect x="48" y="30" width="2" height="2" stroke="blue"
				fill="blue" stroke-width="1"/>
<rect x="51" y="30" width="2" height="2" stroke="blue"
				fill="blue" stroke-width="1"/>
<rect x="58" y="30" width="2" height="2" stroke="blue"
				fill="blue" stroke-width="1"/>
<rect x="44" y="31" width="2" height="2" stroke="blue"
				fill="blue" stroke-width="1"/>
<rect x="48" y="31" width="2" height="2" stroke="blue"
				fill="blue" stroke-width="1"/>
<rect x="49" y="31" width="2" height="2" stroke="blue"
				fill="blue" stroke-width="1"/>
<rect x="50" y="31" width="2" height="2" stroke="blue"
				fill="blue" stroke-width="1"/>
<rect x="51" y="31" width="2" height="2" stroke="blue"
				fill="blue" stroke-width="1"/>
<rect x="58" y="31" width="2" height="2" stroke="blue"
				fill="blue" stroke-width="1"/>
<rect x="44" y="33" width="2" height="2" stroke="blue"
				fill="blue" stroke-width="1"/>
<rect x="50" y="33" width="2" height="2" stroke="blue"
				fill="blue" stroke-width="1"/>
<rect x="58" y="33" width="2" height="2" stroke="blue"
				fill="blue" stroke-width="1"/>
<rect x="44" y="34" width="2" height="2" stroke="blue"
				fill="blue" stroke-width="1"/>
<rect x="50" y="34" width="2" height="2" stroke="blue"
				fill="blue" stroke-width="1"/>
<rect x="58" y="34" width="2" height="2" stroke="blue"
				fill="blue" stroke-width="1"/>
<rect x="44" y="36" width="2" height="2" stroke="blue"
				fill="blue" stroke-width="1"/>
<rect x="45" y="36" width="2" height="2" stroke="blue"
				fill="blue" stroke-width="1"/>
<rect x="46" y="36" width="2" height="2" stroke="blue"
				fill="blue" stroke-width="1"/>
<rect x="47" y="36" width="2" height="2" stroke="blue"
				fill="blue" stroke-width="1"/>
<rect x="48" y="36" width="2" height="2" stroke="blue"
				fill="blue" stroke-width="1"/>
<rect x="49" y="36" width="2" height="2" stroke="blue"
				fill="blue" stroke-width="1"/>
<rect x="50" y="36" width="2" height="2" stroke="blue"
				fill="blue" stroke-width="1"/>
<rect x="51" y="36" width="2" height="2" stroke="blue"
				fill="blue" stroke-width="1"/>
<rect x="52" y="36" width="2" height="2" stroke="blue"
				fill="blue" stroke-width="1"/>
<rect x="53" y="36" width="2" height="2" stroke="blue"
				fill="blue" stroke-width="1"/>
<rect x="54" y="36" width="2" height="2" stroke="blue"
				fill="blue" stroke-width="1"/>
<rect x="55" y="36" width="2" height="2" stroke="blue"
				fill="blue" stroke-width="1"/>
<rect x="56" y="36" width="2" height="2" stroke="blue"
				fill="blue" stroke-width="1"/>
<rect x="57" y="36" width="2" height="2" stroke="blue"
				fill="blue" stroke-width="1"/>
<rect x="58" y="36" width="2" height="2" stroke="blue"
				fill="blue" stroke-width="1"/>

</svg>
